<svg id="クラッカーアイコン1" xmlns="http://www.w3.org/2000/svg" width="86.744" height="96.859" viewBox="0 0 86.744 96.859">
  <path id="Path_14" data-name="Path 14" d="M79.206,177.911a77.655,77.655,0,0,0-7.077-8.058,70.87,70.87,0,0,0-10.6-8.879,29.8,29.8,0,0,0-4.686-2.592,10.932,10.932,0,0,0-4.146-1,5.184,5.184,0,0,0-1.714.276,3.992,3.992,0,0,0-2.475,2.472,5.078,5.078,0,0,0-.256,1.252L34.624,205.128a14.235,14.235,0,0,0-1.886,1.668,8.965,8.965,0,0,0-2.063,3.4,10.162,10.162,0,0,0-.447,3.2c0,.946.07,1.807.067,2.59a8.27,8.27,0,0,1-.11,1.5,5.167,5.167,0,0,1-.869,2.1,9.762,9.762,0,0,1-2.583,2.4l1.688,2.477a14.362,14.362,0,0,0,2.484-2.09,8.655,8.655,0,0,0,1.967-3.28,10.094,10.094,0,0,0,.424-3.109c0-.94-.07-1.8-.067-2.59a8.587,8.587,0,0,1,.119-1.551,5.366,5.366,0,0,1,.927-2.2,9.428,9.428,0,0,1,2.051-2.038l44.155-13.87a5.013,5.013,0,0,0,1.371-.263,4.057,4.057,0,0,0,1.523-.95l-1.212-1.213,1.212,1.211a4.024,4.024,0,0,0,.95-1.522,5.1,5.1,0,0,0,.273-1.715,10.913,10.913,0,0,0-1-4.146A35.925,35.925,0,0,0,79.206,177.911ZM38.8,203.23,41,196.2l2.632,5.517Zm6.886-2.163-3.756-7.878,2.7-8.669,7,14.679Zm8.01-2.516-8.129-17.04,2.7-8.669,11.377,23.841Zm8.013-2.516-12.5-26.2.735-2.355a40.717,40.717,0,0,0,3.684,5.735,77.711,77.711,0,0,0,7.08,8.058c.5.5,1,.985,1.5,1.461l5.456,11.434Zm8.01-2.517-3.385-7.093a57.375,57.375,0,0,0,4.968,3.726,33.812,33.812,0,0,0,3.178,1.872Z" transform="translate(-26.733 -127.606)" fill="#f6ce41"/>
  <rect id="Rectangle_28" data-name="Rectangle 28" width="2.142" height="15.778" transform="translate(40.818 13.098) rotate(18.053)" fill="#f6ce41"/>
  <path id="Path_15" data-name="Path 15" d="M344.959,245.509l.671,2.035,12.65-4.156-.668-2.035Z" transform="translate(-284.758 -195.694)" fill="#f6ce41"/>
  <path id="Path_16" data-name="Path 16" d="M285.94,86.843l1.766,1.214,9.285-13.479-1.764-1.214Z" transform="translate(-236.904 -59.485)" fill="#f6ce41"/>
  <path id="Path_17" data-name="Path 17" d="M303.554,152.581,325.288,137.7l-1.208-1.767-21.738,14.884Z" transform="translate(-250.203 -110.215)" fill="#f6ce41"/>
  <path id="Path_18" data-name="Path 18" d="M428.7,202.076l-3.437,2.218-3.774-1.575,1.046,3.954-2.664,3.1,4.085.226,2.13,3.494,1.476-3.816,3.98-.946-3.17-2.584Z" transform="translate(-345.5 -163.848)" fill="#f6ce41"/>
  <path id="Path_19" data-name="Path 19" d="M342.384,116.759l-2.045-.851.567,2.141-1.444,1.682,2.214.123,1.153,1.893.8-2.067,2.156-.513-1.72-1.4.18-2.21Z" transform="translate(-280.3 -93.697)" fill="#f6ce41"/>
  <path id="Path_20" data-name="Path 20" d="M360.959,211.622l.895,1.469.622-1.6,1.673-.4L362.816,210l.139-1.714-1.447.932-1.586-.662.439,1.663-1.118,1.306Z" transform="translate(-296.339 -168.884)" fill="#f6ce41"/>
  <path id="Path_21" data-name="Path 21" d="M261.672,156.95l.895,1.467.622-1.6,1.673-.4-1.334-1.087.14-1.714-1.447.932-1.586-.662.442,1.663-1.121,1.306Z" transform="translate(-215.835 -124.554)" fill="#f6ce41"/>
  <path id="Path_22" data-name="Path 22" d="M188,89.691l.895,1.467.622-1.6,1.673-.4-1.333-1.087L190,86.356l-1.447.933-1.586-.662.439,1.663L186.285,89.6Z" transform="translate(-156.101 -70.019)" fill="#f6ce41"/>
  <path id="Path_23" data-name="Path 23" d="M377.064,290.279l-1.078-1.341-.41,1.672-1.607.61,1.461.905.084,1.719,1.313-1.111,1.659.45-.651-1.592.944-1.438Z" transform="translate(-308.28 -234.277)" fill="#f6ce41"/>
  <path id="Path_24" data-name="Path 24" d="M244.19,26.024l1.694,2.778,1.177-3.033,3.164-.753L247.7,22.961l.261-3.242-2.734,1.764-3-1.252.834,3.145-2.121,2.468Z" transform="translate(-200.418 -15.989)" fill="#f6ce41"/>
  <path id="Path_25" data-name="Path 25" d="M330.082,9.3l1.543,4.723,2.809-4.095,4.968-.009-3.027-3.938L337.9,1.252l-4.681,1.662L329.2,0l.134,4.965-4.015,2.926Z" transform="translate(-268.831)" fill="#f6ce41"/>
  <path id="Path_26" data-name="Path 26" d="M430.273,98.9l3.19-2.124,3.562,1.425-1.034-3.691,2.455-2.946-3.832-.159-2.04-3.244-1.336,3.594-3.716.94,3.007,2.378Z" transform="translate(-351.701 -71.482)" fill="#f6ce41"/>
</svg>
